<svg xmlns="http://www.w3.org/2000/svg" xmlns:xlink="http://www.w3.org/1999/xlink" height="512" width="512" xmlns:v="https://vecta.io/nano"><path d="M469.5 256c0 48.07-15.886 92.43-42.696 128.115-38.952 51.848-95.996 76.502-165.838 76.502-117.913 0-208.534-86.704-208.534-204.617 0-68.407 22.24-129.3 72.28-168.374C160.924 59.349 206.494 42.5 256 42.5c117.913 0 213.5 95.587 213.5 213.5z" fill="#e3e0e4"/><path d="M433.97 373.97C395.73 431.55 330.3 469.5 256 469.5c-117.91 0-213.5-95.59-213.5-213.5 0-74.3 37.95-139.73 95.53-177.97-22.45 33.79-35.53 74.35-35.53 117.97 0 117.91 95.59 213.5 213.5 213.5 43.62 0 84.18-13.08 117.97-35.53z" fill="#d4cfd5"/><path d="M430.674 11.078l7.746 15.493a2 2 0 0 0 .894.894l15.493 7.746c1.474.737 1.474 2.841 0 3.578l-15.493 7.746a2 2 0 0 0-.894.894l-7.746 15.493c-.737 1.474-2.841 1.474-3.578 0L419.35 47.43a2 2 0 0 0-.894-.894l-15.493-7.746c-1.474-.737-1.474-2.841 0-3.578l15.493-7.746a2 2 0 0 0 .894-.894l7.746-15.493c.737-1.475 2.841-1.475 3.578-.001zM68.211 500.922l-7.746-15.493a2 2 0 0 0-.894-.894l-15.493-7.746c-1.474-.737-1.474-2.841 0-3.578l15.493-7.746a2 2 0 0 0 .894-.894l7.746-15.493c.737-1.474 2.841-1.474 3.578 0l7.746 15.493a2 2 0 0 0 .894.894l15.493 7.746c1.474.737 1.474 2.841 0 3.578l-15.493 7.746a2 2 0 0 0-.894.894l-7.746 15.493c-.737 1.474-2.841 1.474-3.578 0z" fill="#5d91b9"/><path d="M194 224c0 5.247-1.063 10.245-2.986 14.791-5.769 13.639-19.104 17.709-34.844 17.709-20.987 0-30.745-10.013-30.745-31 0-15.68 2.071-30.641 15.626-36.447C145.64 187.088 150.693 186 156 186c20.987 0 38 17.013 38 38zm94.5 159.5a37.83 37.83 0 0 1-7.818 23.091c-6.945 9.064-17.881 8.238-30.182 8.238-20.987 0-38-10.343-38-31.33s17.013-38 38-38 38 17.014 38 38.001z" fill="#d4cfd5"/><path d="M280.68 406.59c-6.94 9.07-17.88 14.91-30.18 14.91-20.99 0-38-17.01-38-38l.01-.72c20.83 11.57 43.8 19.76 68.17 23.81z" fill="#c5bec6"/><path d="M378.5 172.5a22.9 22.9 0 0 1-3.415 12.066c-4.051 6.562-10.658 9.328-18.936 9.328-12.703 0-21.362-8.481-21.362-21.184 0-9.192 3.105-17.335 10.899-21.017 2.977-1.406 6.303-2.193 9.814-2.193 12.703 0 23 10.297 23 23zm17 176a22.94 22.94 0 0 1-1.656 8.586c-3.402 8.45-11.677 10.085-21.344 10.085-12.703 0-16.351-5.758-16.351-18.46 0-11.115 1.235-20.598 11.716-22.743 1.497-.306 3.047-.467 4.635-.467 12.703-.001 23 10.296 23 22.999z" fill="#d4cfd5"/><g fill="#c5bec6"><path d="M190.95 238.95C185.15 252.5 171.68 262 156 262c-20.99 0-38-17.01-38-38 0-15.68 9.5-29.15 23.05-34.95A37.97 37.97 0 0 0 138 204c0 20.99 17.01 38 38 38a37.97 37.97 0 0 0 14.95-3.05z"/><use xlink:href="#B"/><use xlink:href="#B" x="17" y="176"/></g><g fill="#d4cfd5"><circle cx="264.5" cy="110" r="15.5"/><circle cx="254" cy="243" r="17.5"/></g><circle cx="94" cy="298" fill="#c5bec6" r="14.5"/><g fill="#d4cfd5"><circle cx="400" cy="271" r="14.5"/><circle cx="163.5" cy="149.5" r="7.33"/></g><circle cx="152.5" cy="351.5" fill="#c5bec6" r="7.33"/><g fill="#d4cfd5"><circle cx="345.5" cy="399.5" r="7.33"/><circle cx="429.5" cy="218.5" r="7.33"/><circle cx="325.5" cy="107.5" r="7.33"/></g><path d="M441.706 136.144c-22.484-34.769-54.117-62.469-91.477-80.104a7.5 7.5 0 0 0-6.402 13.565C415.614 103.492 462 176.656 462 256c0 19.146-2.624 38.103-7.798 56.344a7.5 7.5 0 0 0 5.168 9.262c.685.194 1.373.287 2.051.287 3.27 0 6.275-2.154 7.211-5.455C474.185 296.865 477 276.531 477 256c0-42.707-12.204-84.152-35.294-119.856zm10.542 204.405c-3.738-1.773-8.215-.178-9.989 3.565C408.319 415.727 335.208 462 256 462c-113.589 0-206-92.411-206-206S142.411 50 256 50c18.854 0 37.529 2.544 55.509 7.563 3.994 1.116 8.127-1.218 9.24-5.207a7.5 7.5 0 0 0-5.207-9.24C296.249 37.73 276.216 35 256 35c-59.031 0-114.529 22.988-156.271 64.729S35 196.969 35 256s22.988 114.529 64.729 156.271S196.969 477 256 477c42.646 0 84.043-12.172 119.714-35.202 34.734-22.425 62.433-53.982 80.1-91.26a7.5 7.5 0 0 0-3.566-9.989zM396.03 43.708l17.432 8.716 8.715 17.43a7.5 7.5 0 0 0 13.416 0l8.715-17.43 17.432-8.716a7.5 7.5 0 0 0 0-13.416l-17.432-8.716-8.715-17.43a7.5 7.5 0 0 0-13.416 0l-8.715 17.43-17.432 8.716a7.5 7.5 0 0 0 0 13.416zm26.376-9.833a7.5 7.5 0 0 0 3.354-3.354l3.125-6.25 3.125 6.25c.726 1.452 1.902 2.628 3.354 3.354l6.25 3.125-6.251 3.125a7.5 7.5 0 0 0-3.354 3.354l-3.125 6.25-3.125-6.25c-.726-1.452-1.902-2.628-3.354-3.354L416.155 37zM504.5 376.5h-5v-5a7.5 7.5 0 1 0-15 0v5h-5a7.5 7.5 0 1 0 0 15h5v5a7.5 7.5 0 1 0 15 0v-5h5a7.5 7.5 0 1 0 0-15zm-401.646 91.792l-17.432-8.716-8.715-17.43C75.438 439.605 72.841 438 70 438a7.5 7.5 0 0 0-6.708 4.146l-8.715 17.43-17.432 8.716a7.5 7.5 0 0 0 .001 13.416l17.432 8.716 8.715 17.43a7.5 7.5 0 0 0 13.415 0l8.715-17.43 17.432-8.716a7.5 7.5 0 0 0-.001-13.416zm-26.375 9.833a7.5 7.5 0 0 0-3.354 3.354L70 487.729l-3.125-6.25c-.726-1.452-1.902-2.628-3.354-3.354L57.271 475l6.251-3.125a7.5 7.5 0 0 0 3.354-3.354l3.125-6.25 3.125 6.25c.726 1.452 1.902 2.628 3.354 3.354L82.729 475zM40 118a7.5 7.5 0 0 0-7.5-7.5h-5v-5a7.5 7.5 0 1 0-15 0v5h-5a7.5 7.5 0 1 0 0 15h5v5a7.5 7.5 0 1 0 15 0v-5h5A7.5 7.5 0 0 0 40 118zm161.5 106c0-25.089-20.411-45.5-45.5-45.5-10.938 0-21.51 3.938-29.77 11.09a7.5 7.5 0 0 0-.761 10.579c2.712 3.133 7.448 3.47 10.579.761 5.534-4.791 12.619-7.43 19.951-7.43 16.817 0 30.5 13.682 30.5 30.5s-13.683 30.5-30.5 30.5c-15.699 0-28.742-11.755-30.339-27.344a7.49 7.49 0 0 0-8.226-6.697 7.5 7.5 0 0 0-6.696 8.225C113.122 251.953 132.58 269.5 156 269.5c25.089 0 45.5-20.411 45.5-45.5zm49 190a30.82 30.82 0 0 1-4.828-.379 7.5 7.5 0 1 0-2.352 14.814 45.87 45.87 0 0 0 7.18.564c25.089 0 45.5-20.411 45.5-45.5S275.589 338 250.5 338 205 358.411 205 383.5a45.08 45.08 0 0 0 4.615 19.988c1.822 3.719 6.313 5.258 10.034 3.438a7.5 7.5 0 0 0 3.438-10.034c-2.049-4.184-3.088-8.689-3.088-13.392 0-16.818 13.683-30.5 30.5-30.5s30.5 13.682 30.5 30.5S267.317 414 250.5 414zm105-272c-16.817 0-30.5 13.682-30.5 30.5s13.683 30.5 30.5 30.5 30.5-13.682 30.5-30.5-13.683-30.5-30.5-30.5zm0 46c-8.547 0-15.5-6.953-15.5-15.5s6.953-15.5 15.5-15.5 15.5 6.953 15.5 15.5-6.953 15.5-15.5 15.5zM403 348.5c0-16.818-13.683-30.5-30.5-30.5S342 331.682 342 348.5s13.683 30.5 30.5 30.5 30.5-13.682 30.5-30.5zm-46 0c0-8.547 6.953-15.5 15.5-15.5s15.5 6.953 15.5 15.5-6.953 15.5-15.5 15.5-15.5-6.953-15.5-15.5zM287.5 110c0-12.682-10.317-23-23-23s-23 10.318-23 23 10.317 23 23 23 23-10.318 23-23zm-31 0a8.01 8.01 0 0 1 8-8 8.01 8.01 0 0 1 8 8 8.01 8.01 0 0 1-8 8 8.01 8.01 0 0 1-8-8zM229 243c0 13.785 11.215 25 25 25s25-11.215 25-25-11.215-25-25-25-25 11.215-25 25zm25-10c5.514 0 10 4.486 10 10s-4.486 10-10 10-10-4.486-10-10 4.486-10 10-10zM94 276c-12.131 0-22 9.869-22 22s9.869 22 22 22 22-9.869 22-22-9.869-22-22-22zm0 29a7.01 7.01 0 0 1-7-7 7.01 7.01 0 0 1 7-7 7.01 7.01 0 0 1 7 7 7.01 7.01 0 0 1-7 7zm328-34c0-12.131-9.869-22-22-22s-22 9.869-22 22 9.869 22 22 22 22-9.869 22-22zm-22 7a7.01 7.01 0 0 1-7-7 7.01 7.01 0 0 1 7-7 7.01 7.01 0 0 1 7 7 7.01 7.01 0 0 1-7 7z"/><circle cx="163.5" cy="149.504" r="7.496"/><circle cx="325.5" cy="107.5" r="7.496"/><circle cx="429.5" cy="218.503" r="7.496"/><circle cx="345.5" cy="399.5" r="7.496"/><circle cx="152.5" cy="351.5" r="7.496"/><defs ><path id="B" d="m376.83 181.08c-3.39 8.45-11.66 14.42-21.33 14.42-12.7 0-23-10.3-23-23 0-11.22 8.04-20.57 18.67-22.58-1.08 2.65-1.67 5.55-1.67 8.58 0 12.7 10.3 23 23 23 1.48 0 2.93-.14 4.33-.42z"/></defs></svg>